<svg id="svg" version="1.1" xmlns="http://www.w3.org/2000/svg" xmlns:xlink="http://www.w3.org/1999/xlink" width="400" height="400" viewBox="0, 0, 400,400"><g id="svgg"><path id="path0" d="M171.800 28.236 C 164.087 29.235,155.785 32.085,153.553 34.500 C 153.197 34.885,152.687 35.200,152.419 35.200 C 151.621 35.200,143.756 43.390,142.551 45.474 C 141.939 46.533,141.331 47.490,141.200 47.600 C 141.069 47.710,140.529 48.430,140.000 49.200 C 138.901 50.799,137.195 52.399,136.588 52.400 C 136.362 52.400,135.917 52.760,135.600 53.200 C 135.283 53.640,134.791 54.000,134.506 54.000 C 134.222 54.000,133.677 54.167,133.295 54.371 C 131.987 55.069,127.243 55.573,126.014 55.145 C 124.290 54.544,113.831 55.262,113.020 56.037 C 112.811 56.237,112.147 56.400,111.544 56.400 C 110.941 56.400,110.336 56.580,110.200 56.800 C 110.064 57.020,109.633 57.200,109.243 57.200 C 106.000 57.200,91.600 67.262,91.600 69.528 C 91.600 69.711,91.135 70.297,90.566 70.830 C 89.997 71.364,89.196 72.536,88.785 73.435 C 88.375 74.334,87.761 75.301,87.420 75.584 C 87.079 75.866,86.800 76.311,86.800 76.571 C 86.800 77.148,84.325 79.600,83.743 79.600 C 83.513 79.600,82.998 79.960,82.600 80.400 C 82.202 80.840,81.465 81.200,80.962 81.200 C 80.459 81.200,79.936 81.380,79.800 81.600 C 79.664 81.820,78.944 82.000,78.200 82.000 C 77.456 82.000,76.736 82.180,76.600 82.400 C 76.279 82.920,73.721 82.920,73.400 82.400 C 72.424 80.820,62.938 82.506,61.231 84.562 C 60.940 84.913,60.499 85.201,60.251 85.203 C 59.791 85.205,58.981 86.415,57.327 89.568 C 56.331 91.466,55.946 98.072,56.800 98.600 C 57.020 98.736,57.200 99.287,57.200 99.824 C 57.200 100.361,57.380 100.800,57.600 100.800 C 57.820 100.800,58.000 101.032,58.000 101.316 C 58.000 104.071,65.215 107.908,69.539 107.452 C 70.783 107.322,72.880 107.103,74.200 106.967 C 76.787 106.700,80.702 107.559,81.771 108.628 C 82.086 108.943,82.524 109.200,82.746 109.200 C 83.321 109.200,87.600 113.694,87.600 114.298 C 87.600 114.574,87.752 114.800,87.937 114.800 C 88.123 114.800,88.701 115.655,89.223 116.700 C 90.160 118.576,98.188 127.168,99.025 127.189 C 99.258 127.195,99.798 127.517,100.225 127.904 C 101.264 128.848,107.625 132.007,108.476 132.003 C 108.848 132.001,109.264 132.180,109.400 132.400 C 109.536 132.620,110.051 132.800,110.544 132.800 C 111.037 132.800,111.611 132.962,111.820 133.159 C 112.768 134.055,127.336 134.824,128.139 134.021 C 128.371 133.789,129.096 133.600,129.752 133.600 C 131.197 133.600,134.356 132.641,136.495 131.553 C 136.877 131.359,137.541 131.200,137.971 131.200 C 138.401 131.200,138.864 131.020,139.000 130.800 C 139.324 130.276,147.076 130.276,147.400 130.800 C 147.536 131.020,148.256 131.200,149.000 131.200 C 149.744 131.200,150.464 131.380,150.600 131.600 C 150.736 131.820,151.456 132.000,152.200 132.000 C 152.944 132.000,153.664 132.180,153.800 132.400 C 153.936 132.620,154.836 132.800,155.800 132.800 C 156.764 132.800,157.664 132.980,157.800 133.200 C 157.936 133.420,159.351 133.600,160.944 133.600 C 162.537 133.600,164.026 133.786,164.253 134.013 C 165.081 134.841,190.465 134.049,191.380 133.166 C 191.589 132.965,192.703 132.800,193.856 132.800 C 195.009 132.800,196.064 132.620,196.200 132.400 C 196.336 132.180,197.056 132.000,197.800 132.000 C 198.544 132.000,199.264 131.820,199.400 131.600 C 199.536 131.380,200.256 131.200,201.000 131.200 C 201.744 131.200,202.464 131.020,202.600 130.800 C 202.738 130.577,204.596 130.400,206.800 130.400 C 209.004 130.400,210.862 130.577,211.000 130.800 C 211.136 131.020,211.591 131.200,212.011 131.200 C 212.432 131.200,213.369 131.533,214.095 131.941 C 214.820 132.348,215.951 132.788,216.607 132.917 C 219.430 133.472,220.246 133.682,221.012 134.051 C 222.581 134.805,237.244 134.044,238.180 133.159 C 238.389 132.962,238.963 132.800,239.456 132.800 C 239.949 132.800,240.464 132.620,240.600 132.400 C 240.736 132.180,241.150 132.000,241.520 132.000 C 242.406 132.000,247.795 129.328,248.415 128.582 C 248.681 128.262,249.146 128.000,249.449 128.000 C 249.752 128.000,250.000 127.850,250.000 127.668 C 250.000 127.485,250.495 127.083,251.100 126.774 C 252.205 126.210,257.853 120.760,258.600 119.537 C 258.820 119.176,259.585 118.044,260.300 117.021 C 261.015 115.997,261.600 115.017,261.600 114.842 C 261.600 114.667,261.960 114.198,262.400 113.800 C 262.840 113.402,263.200 112.868,263.200 112.613 C 263.200 112.040,265.286 110.000,265.873 110.000 C 266.109 110.000,266.529 109.727,266.806 109.393 C 268.079 107.858,272.760 106.606,275.893 106.961 C 282.270 107.685,282.759 107.689,284.647 107.046 C 295.694 103.282,296.738 88.226,286.313 83.031 C 284.117 81.937,277.165 81.485,276.600 82.400 C 276.278 82.921,272.922 82.921,272.600 82.400 C 272.464 82.180,271.844 82.000,271.222 82.000 C 269.179 82.000,262.400 77.341,262.400 75.937 C 262.400 75.774,261.860 74.840,261.200 73.862 C 260.540 72.884,260.000 71.937,260.000 71.757 C 260.000 71.577,259.261 70.677,258.358 69.757 C 257.454 68.837,256.509 67.677,256.258 67.181 C 256.006 66.685,255.448 66.081,255.018 65.839 C 254.588 65.598,253.508 64.738,252.618 63.929 C 250.049 61.594,246.114 59.300,241.600 57.504 C 241.050 57.286,240.287 56.948,239.905 56.753 C 239.523 56.559,238.769 56.400,238.229 56.400 C 237.689 56.400,237.136 56.220,237.000 56.000 C 236.864 55.780,235.784 55.600,234.600 55.600 C 233.416 55.600,232.336 55.420,232.200 55.200 C 231.878 54.678,225.165 54.681,223.791 55.203 C 222.680 55.626,218.070 55.080,216.705 54.364 C 216.323 54.164,215.738 54.000,215.405 54.000 C 215.072 54.000,214.800 53.820,214.800 53.600 C 214.800 53.380,214.564 53.200,214.275 53.200 C 213.987 53.200,213.402 52.876,212.975 52.480 C 212.549 52.084,211.885 51.639,211.500 51.492 C 211.115 51.345,210.800 51.030,210.800 50.791 C 210.800 50.552,210.261 49.781,209.602 49.078 C 208.943 48.375,208.403 47.671,208.402 47.513 C 208.393 46.077,200.212 36.822,197.900 35.631 C 197.295 35.320,196.800 34.915,196.800 34.732 C 196.800 34.550,196.589 34.400,196.331 34.400 C 196.074 34.400,195.579 34.153,195.231 33.852 C 191.305 30.444,178.481 27.370,171.800 28.236 " stroke="none" fill="#fcfcfc" fill-rule="evenodd"></path><path id="path1" d="M168.657 28.307 C 168.553 28.476,169.217 28.557,170.134 28.486 C 172.825 28.279,173.153 28.096,170.924 28.046 C 169.782 28.021,168.762 28.138,168.657 28.307 M177.200 28.227 C 178.544 28.527,181.511 28.580,181.338 28.300 C 181.236 28.135,180.128 28.021,178.876 28.046 C 177.624 28.072,176.870 28.153,177.200 28.227 M182.800 28.956 C 182.800 29.042,183.417 29.185,184.172 29.273 C 184.927 29.361,185.456 29.290,185.348 29.116 C 185.155 28.803,182.800 28.655,182.800 28.956 M143.804 43.196 C 143.174 43.854,142.735 44.456,142.829 44.534 C 142.923 44.612,143.513 44.074,144.139 43.338 C 145.554 41.677,145.345 41.588,143.804 43.196 M232.352 55.312 C 232.545 55.505,233.219 55.598,233.851 55.519 C 234.909 55.387,234.881 55.359,233.500 55.168 C 232.640 55.049,232.150 55.110,232.352 55.312 M115.300 55.476 C 115.685 55.576,116.315 55.576,116.700 55.476 C 117.085 55.375,116.770 55.293,116.000 55.293 C 115.230 55.293,114.915 55.375,115.300 55.476 M242.524 57.880 C 242.922 57.983,244.253 58.597,245.482 59.243 C 246.710 59.889,247.779 60.354,247.858 60.276 C 248.109 60.025,243.112 57.598,242.444 57.646 C 241.935 57.683,241.951 57.732,242.524 57.880 M251.200 62.525 C 251.200 62.594,251.785 63.179,252.500 63.825 L 253.800 65.000 252.625 63.700 C 251.530 62.488,251.200 62.216,251.200 62.525 M256.400 67.725 C 256.400 67.794,256.985 68.379,257.700 69.025 L 259.000 70.200 257.825 68.900 C 256.730 67.688,256.400 67.416,256.400 67.725 M260.015 71.600 C 260.021 71.930,260.290 72.549,260.613 72.976 C 261.368 73.975,261.363 73.605,260.602 72.146 C 260.274 71.516,260.010 71.270,260.015 71.600 M262.400 75.858 C 262.400 76.074,262.985 76.779,263.700 77.425 L 265.000 78.600 263.800 77.202 C 263.140 76.433,262.555 75.728,262.500 75.635 C 262.445 75.543,262.400 75.643,262.400 75.858 M290.025 85.831 C 290.781 86.728,291.481 87.397,291.580 87.317 C 291.679 87.238,291.060 86.504,290.205 85.687 L 288.650 84.200 290.025 85.831 M292.262 88.800 C 292.516 89.130,292.806 89.850,292.907 90.400 L 293.091 91.400 293.146 90.349 C 293.176 89.770,292.886 89.052,292.500 88.749 C 291.891 88.271,291.860 88.278,292.262 88.800 M56.124 94.600 C 56.126 95.920,56.201 96.412,56.290 95.693 C 56.379 94.974,56.377 93.894,56.286 93.293 C 56.195 92.692,56.122 93.280,56.124 94.600 M293.709 94.800 C 293.709 95.790,293.787 96.195,293.882 95.700 C 293.978 95.205,293.978 94.395,293.882 93.900 C 293.787 93.405,293.709 93.810,293.709 94.800 M73.900 107.089 C 74.615 107.178,75.785 107.178,76.500 107.089 C 77.215 107.001,76.630 106.928,75.200 106.928 C 73.770 106.928,73.185 107.001,73.900 107.089 M273.500 107.089 C 274.215 107.178,275.385 107.178,276.100 107.089 C 276.815 107.001,276.230 106.928,274.800 106.928 C 273.370 106.928,272.785 107.001,273.500 107.089 M66.361 107.723 C 66.540 107.900,67.656 107.988,68.843 107.917 L 71.000 107.789 68.518 107.594 C 67.154 107.487,66.183 107.545,66.361 107.723 M281.400 107.600 L 279.000 107.866 281.276 107.933 C 282.528 107.970,283.664 107.820,283.800 107.600 C 283.936 107.380,283.992 107.230,283.924 107.267 C 283.856 107.304,282.720 107.454,281.400 107.600 M264.204 111.196 C 263.574 111.854,263.135 112.442,263.229 112.503 C 263.323 112.564,263.970 112.026,264.666 111.307 C 265.362 110.588,265.801 110.000,265.641 110.000 C 265.481 110.000,264.834 110.538,264.204 111.196 M75.809 144.036 C 75.690 144.346,75.640 188.790,75.697 242.800 L 75.800 341.000 77.087 342.300 C 77.794 343.015,78.524 343.600,78.708 343.600 C 78.893 343.600,80.165 344.680,81.535 346.000 C 82.905 347.320,84.165 348.400,84.335 348.400 C 84.505 348.400,85.765 349.480,87.135 350.800 C 88.505 352.120,89.760 353.200,89.924 353.200 C 90.089 353.200,91.383 354.370,92.800 355.800 C 94.217 357.230,95.562 358.402,95.788 358.404 C 96.015 358.406,97.280 359.479,98.600 360.789 C 99.920 362.099,101.181 363.177,101.402 363.185 C 101.623 363.193,103.063 364.456,104.602 365.991 C 106.141 367.526,107.587 368.786,107.815 368.791 C 108.043 368.796,109.117 369.700,110.200 370.800 L 112.170 372.800 174.424 372.800 C 228.147 372.800,236.836 372.720,237.839 372.217 C 238.477 371.897,240.165 370.457,241.588 369.017 C 243.012 367.578,244.368 366.400,244.601 366.400 C 244.834 366.400,246.094 365.320,247.400 364.000 C 248.706 362.680,249.967 361.600,250.201 361.600 C 250.436 361.600,251.605 360.610,252.800 359.400 C 253.995 358.190,255.164 357.200,255.397 357.200 C 255.630 357.200,257.072 355.940,258.600 354.400 C 260.128 352.860,261.519 351.600,261.692 351.600 C 261.864 351.600,263.096 350.565,264.431 349.300 C 265.766 348.035,267.070 346.927,267.329 346.837 C 267.588 346.747,268.938 345.577,270.329 344.237 C 271.721 342.897,273.206 341.671,273.629 341.513 C 274.492 341.192,274.885 144.347,274.024 143.815 C 273.817 143.687,272.489 144.666,271.073 145.991 C 269.657 147.316,268.324 148.400,268.111 148.400 C 267.898 148.400,267.398 148.760,267.000 149.200 C 266.602 149.640,266.062 150.000,265.800 150.000 C 265.538 150.000,264.998 150.360,264.600 150.800 C 264.202 151.240,263.656 151.600,263.387 151.600 C 263.118 151.600,262.684 151.858,262.422 152.174 C 261.909 152.792,253.271 157.200,252.572 157.200 C 252.340 157.200,251.405 157.560,250.494 158.000 C 249.584 158.440,248.571 158.800,248.243 158.800 C 247.915 158.800,247.536 158.980,247.400 159.200 C 247.264 159.420,246.569 159.600,245.856 159.600 C 245.143 159.600,244.377 159.783,244.153 160.007 C 243.929 160.231,242.267 160.528,240.459 160.667 C 238.652 160.807,237.078 161.074,236.963 161.260 C 236.688 161.704,218.911 161.704,218.637 161.260 C 218.521 161.073,217.037 160.802,215.338 160.659 C 212.342 160.405,210.194 159.910,208.650 159.116 C 207.705 158.631,202.872 158.647,202.258 159.138 C 201.647 159.628,199.593 159.937,193.600 160.443 C 190.850 160.675,188.287 161.030,187.905 161.232 C 186.938 161.744,162.517 161.713,162.200 161.200 C 162.064 160.980,160.748 160.791,159.276 160.779 C 156.328 160.757,152.481 160.291,149.400 159.583 C 145.482 158.682,142.709 158.679,139.989 159.572 C 138.590 160.032,135.945 160.523,134.110 160.664 C 132.274 160.805,130.678 161.073,130.563 161.260 C 130.288 161.704,113.312 161.704,113.037 161.260 C 112.922 161.074,111.348 160.807,109.541 160.667 C 107.733 160.528,106.071 160.231,105.847 160.007 C 105.623 159.783,104.857 159.600,104.144 159.600 C 103.431 159.600,102.736 159.420,102.600 159.200 C 102.464 158.980,101.924 158.800,101.400 158.800 C 100.876 158.800,100.336 158.620,100.200 158.400 C 100.064 158.180,99.622 158.000,99.217 158.000 C 98.812 158.000,97.455 157.460,96.200 156.800 C 94.945 156.140,93.695 155.600,93.421 155.600 C 92.764 155.600,90.479 154.452,90.184 153.974 C 90.056 153.767,89.182 153.247,88.241 152.819 C 87.300 152.390,86.299 151.761,86.016 151.420 C 85.734 151.079,85.254 150.800,84.951 150.800 C 84.648 150.800,84.400 150.650,84.400 150.468 C 84.400 150.285,83.905 149.880,83.300 149.568 C 82.695 149.255,81.539 148.325,80.731 147.500 C 79.924 146.675,79.090 146.000,78.879 146.000 C 78.668 146.000,77.939 145.431,77.259 144.736 C 76.344 143.800,75.968 143.618,75.809 144.036 " stroke="none" fill="#f48c1c" fill-rule="evenodd"></path><path id="path2" d="M164.900 0.268 C 163.525 0.362,162.400 0.610,162.400 0.819 C 162.400 1.029,161.500 1.200,160.400 1.200 C 159.300 1.200,158.400 1.380,158.400 1.600 C 158.400 1.820,157.860 2.000,157.200 2.000 C 156.540 2.000,156.000 2.180,156.000 2.400 C 156.000 2.620,155.471 2.800,154.824 2.800 C 154.177 2.800,153.536 2.980,153.400 3.200 C 153.264 3.420,152.801 3.600,152.371 3.600 C 151.616 3.600,151.226 3.744,149.305 4.738 C 148.813 4.992,148.138 5.200,147.805 5.200 C 147.472 5.200,147.200 5.380,147.200 5.600 C 147.200 5.820,146.840 6.000,146.400 6.000 C 145.960 6.000,145.600 6.180,145.600 6.400 C 145.600 6.620,145.240 6.800,144.800 6.800 C 144.360 6.800,144.000 6.980,144.000 7.200 C 144.000 7.420,143.730 7.600,143.400 7.600 C 143.070 7.600,142.800 7.780,142.800 8.000 C 142.800 8.220,142.440 8.400,142.000 8.400 C 141.560 8.400,141.200 8.580,141.200 8.800 C 141.200 9.020,140.840 9.200,140.400 9.200 C 139.960 9.200,139.600 9.362,139.600 9.561 C 139.600 9.759,139.094 10.098,138.476 10.314 C 137.857 10.529,137.092 10.958,136.776 11.266 C 136.459 11.574,135.570 12.262,134.800 12.794 C 134.030 13.326,133.310 13.860,133.200 13.981 C 133.090 14.101,132.190 14.828,131.200 15.595 C 130.210 16.362,128.976 17.491,128.457 18.103 C 127.939 18.716,126.544 20.227,125.357 21.462 C 124.171 22.697,123.200 23.871,123.200 24.072 C 123.200 24.833,121.193 26.400,120.218 26.400 C 119.658 26.400,119.200 26.552,119.200 26.739 C 119.200 26.925,116.725 27.188,113.700 27.323 C 110.675 27.459,107.660 27.745,107.000 27.960 C 106.340 28.175,104.990 28.559,104.000 28.814 C 103.010 29.069,101.887 29.440,101.505 29.639 C 101.123 29.838,100.358 30.000,99.805 30.000 C 99.252 30.000,98.800 30.180,98.800 30.400 C 98.800 30.620,98.457 30.800,98.038 30.800 C 97.222 30.800,93.888 32.401,93.667 32.900 C 93.593 33.065,93.132 33.200,92.642 33.200 C 92.152 33.200,91.364 33.560,90.892 34.000 C 90.420 34.440,89.756 34.800,89.417 34.800 C 89.078 34.800,88.800 34.980,88.800 35.200 C 88.800 35.420,88.440 35.600,88.000 35.600 C 87.560 35.600,87.200 35.780,87.200 36.000 C 87.200 36.220,86.964 36.400,86.675 36.400 C 86.387 36.400,85.764 36.760,85.292 37.200 C 84.820 37.640,84.273 38.000,84.076 38.000 C 83.879 38.000,83.154 38.540,82.463 39.200 C 81.772 39.860,81.048 40.400,80.854 40.400 C 80.525 40.400,77.553 43.068,73.800 46.732 C 71.111 49.358,68.547 52.240,68.279 52.938 C 68.076 53.467,67.463 53.600,65.236 53.600 C 63.702 53.600,62.336 53.780,62.200 54.000 C 62.064 54.220,61.153 54.400,60.176 54.400 C 59.199 54.400,58.400 54.580,58.400 54.800 C 58.400 55.020,57.680 55.200,56.800 55.200 C 55.920 55.200,55.200 55.380,55.200 55.600 C 55.200 55.820,54.840 56.000,54.400 56.000 C 53.960 56.000,53.600 56.180,53.600 56.400 C 53.600 56.620,53.150 56.800,52.600 56.800 C 52.050 56.800,51.600 56.980,51.600 57.200 C 51.600 57.420,51.330 57.600,51.000 57.600 C 50.670 57.600,50.400 57.780,50.400 58.000 C 50.400 58.220,50.040 58.400,49.600 58.400 C 49.160 58.400,48.800 58.580,48.800 58.800 C 48.800 59.020,48.440 59.200,48.000 59.200 C 47.560 59.200,47.200 59.380,47.200 59.600 C 47.200 59.820,46.949 60.000,46.643 60.000 C 45.632 60.000,37.200 67.409,37.200 68.297 C 37.200 68.481,36.480 69.428,35.600 70.400 C 34.720 71.372,34.000 72.400,34.000 72.684 C 34.000 72.968,33.820 73.200,33.600 73.200 C 33.380 73.200,33.200 73.560,33.200 74.000 C 33.200 74.440,33.020 74.800,32.800 74.800 C 32.580 74.800,32.400 75.145,32.400 75.567 C 32.400 75.988,32.265 76.393,32.100 76.467 C 31.609 76.685,30.000 80.016,30.000 80.814 C 30.000 81.220,29.820 81.664,29.600 81.800 C 29.380 81.936,29.200 82.631,29.200 83.344 C 29.200 84.057,29.037 84.811,28.839 85.020 C 27.863 86.047,27.518 98.510,28.358 102.400 C 28.619 103.610,28.936 105.187,29.061 105.904 C 29.186 106.621,29.449 107.306,29.644 107.427 C 29.840 107.548,30.000 108.087,30.000 108.624 C 30.000 109.161,30.180 109.600,30.400 109.600 C 30.620 109.600,30.800 109.935,30.800 110.344 C 30.800 111.256,33.205 116.000,33.667 116.000 C 33.850 116.000,34.000 116.320,34.000 116.712 C 34.000 117.103,34.360 117.683,34.800 118.000 C 35.240 118.317,35.600 118.813,35.600 119.102 C 35.600 119.390,36.185 120.229,36.900 120.965 C 37.615 121.701,38.740 122.951,39.400 123.743 C 40.060 124.535,40.811 125.187,41.069 125.191 C 41.327 125.196,42.244 125.920,43.107 126.800 C 43.969 127.680,44.801 128.400,44.956 128.400 C 45.110 128.400,45.678 128.842,46.218 129.382 L 47.200 130.364 47.200 239.158 C 47.200 311.256,47.335 348.036,47.600 348.200 C 47.820 348.336,48.000 349.247,48.000 350.224 C 48.000 351.201,48.180 352.000,48.400 352.000 C 48.620 352.000,48.800 352.450,48.800 353.000 C 48.800 353.550,48.980 354.000,49.200 354.000 C 49.420 354.000,49.600 354.270,49.600 354.600 C 49.600 354.930,49.780 355.200,50.000 355.200 C 50.220 355.200,50.400 355.416,50.400 355.681 C 50.400 356.247,53.858 359.600,54.442 359.600 C 54.663 359.600,55.904 360.680,57.200 362.000 C 58.496 363.320,59.660 364.400,59.788 364.400 C 59.916 364.400,60.808 365.187,61.769 366.148 C 62.731 367.109,64.208 368.414,65.053 369.048 C 65.898 369.682,67.149 370.740,67.833 371.400 C 69.699 373.200,71.028 374.280,72.049 374.826 C 72.553 375.096,73.817 376.191,74.857 377.258 C 75.897 378.326,76.861 379.200,77.000 379.200 C 77.139 379.200,78.095 380.060,79.126 381.111 C 80.157 382.162,81.617 383.457,82.371 383.989 C 83.126 384.521,84.729 385.911,85.934 387.078 C 87.139 388.245,88.257 389.200,88.420 389.200 C 88.582 389.200,89.270 389.695,89.948 390.300 C 90.626 390.905,92.004 392.120,93.012 393.000 C 94.020 393.880,95.673 395.365,96.686 396.300 C 97.699 397.235,98.769 398.000,99.064 398.000 C 99.359 398.000,99.600 398.180,99.600 398.400 C 99.600 398.620,99.945 398.800,100.367 398.800 C 100.788 398.800,101.208 399.025,101.300 399.300 C 101.545 400.035,248.455 400.035,248.700 399.300 C 248.792 399.025,249.172 398.800,249.545 398.800 C 249.918 398.800,250.483 398.440,250.800 398.000 C 251.117 397.560,251.591 397.200,251.853 397.200 C 252.116 397.200,253.427 396.120,254.768 394.800 C 256.108 393.480,257.302 392.400,257.420 392.400 C 257.700 392.400,258.403 391.804,260.842 389.500 C 261.948 388.455,262.993 387.600,263.164 387.600 C 263.336 387.600,264.461 386.645,265.666 385.478 C 266.871 384.311,268.474 382.921,269.229 382.389 C 269.983 381.857,271.443 380.562,272.474 379.511 C 273.505 378.460,274.456 377.600,274.587 377.600 C 274.719 377.600,275.448 377.015,276.206 376.300 C 278.505 374.135,279.338 373.429,280.800 372.405 C 281.570 371.867,282.830 370.790,283.600 370.013 C 284.370 369.236,285.694 368.082,286.541 367.448 C 287.389 366.814,288.869 365.509,289.831 364.548 C 290.792 363.587,291.678 362.800,291.798 362.800 C 292.002 362.800,293.761 361.163,298.500 356.563 C 299.545 355.548,300.400 354.467,300.400 354.159 C 300.400 353.852,300.580 353.600,300.800 353.600 C 301.020 353.600,301.200 353.060,301.200 352.400 C 301.200 351.740,301.380 351.200,301.600 351.200 C 301.855 351.200,302.000 347.800,302.000 341.800 L 302.000 332.400 331.976 332.400 C 351.529 332.400,362.039 332.261,362.200 332.000 C 362.336 331.780,362.887 331.600,363.424 331.600 C 363.961 331.600,364.400 331.420,364.400 331.200 C 364.400 330.980,364.682 330.800,365.026 330.800 C 366.532 330.800,371.600 324.641,371.600 322.811 C 371.600 322.391,371.780 321.936,372.000 321.800 C 372.554 321.457,372.554 156.800,372.000 156.800 C 371.780 156.800,371.600 156.260,371.600 155.600 C 371.600 154.940,371.420 154.400,371.200 154.400 C 370.980 154.400,370.800 154.040,370.800 153.600 C 370.800 153.160,370.620 152.800,370.400 152.800 C 370.180 152.800,370.000 152.544,370.000 152.232 C 370.000 151.919,369.176 150.839,368.168 149.832 C 367.161 148.824,366.081 148.000,365.768 148.000 C 365.456 148.000,365.200 147.820,365.200 147.600 C 365.200 147.380,364.840 147.200,364.400 147.200 C 363.960 147.200,363.600 147.040,363.600 146.844 C 363.600 146.022,359.174 145.870,331.300 145.734 L 302.000 145.590 302.000 137.862 L 302.000 130.135 303.100 129.570 C 303.705 129.260,304.491 128.689,304.847 128.303 C 305.203 127.916,305.677 127.600,305.901 127.600 C 306.517 127.600,313.600 120.526,313.600 119.912 C 313.600 119.617,313.960 119.117,314.400 118.800 C 314.840 118.483,315.200 117.943,315.200 117.600 C 315.200 117.257,315.560 116.717,316.000 116.400 C 316.440 116.083,316.800 115.503,316.800 115.112 C 316.800 114.720,316.980 114.400,317.200 114.400 C 317.420 114.400,317.600 114.040,317.600 113.600 C 317.600 113.160,317.780 112.800,318.000 112.800 C 318.220 112.800,318.400 112.440,318.400 112.000 C 318.400 111.560,318.580 111.200,318.800 111.200 C 319.020 111.200,319.200 110.660,319.200 110.000 C 319.200 109.340,319.380 108.800,319.600 108.800 C 319.820 108.800,320.000 108.361,320.000 107.824 C 320.000 107.287,320.180 106.736,320.400 106.600 C 320.620 106.464,320.800 105.769,320.800 105.056 C 320.800 104.343,320.966 103.589,321.170 103.380 C 321.373 103.171,321.637 101.650,321.757 100.000 C 321.876 98.350,322.087 95.947,322.226 94.659 C 322.388 93.164,322.320 92.160,322.039 91.879 C 321.798 91.638,321.600 90.227,321.600 88.744 C 321.600 87.261,321.420 85.936,321.200 85.800 C 320.980 85.664,320.800 84.944,320.800 84.200 C 320.800 83.456,320.620 82.736,320.400 82.600 C 320.180 82.464,320.000 81.924,320.000 81.400 C 320.000 80.876,319.820 80.336,319.600 80.200 C 319.380 80.064,319.200 79.603,319.200 79.176 C 319.200 78.749,319.020 78.400,318.800 78.400 C 318.580 78.400,318.400 78.130,318.400 77.800 C 318.400 77.470,318.220 77.200,318.000 77.200 C 317.780 77.200,317.600 76.840,317.600 76.400 C 317.600 75.960,317.420 75.600,317.200 75.600 C 316.980 75.600,316.800 75.240,316.800 74.800 C 316.800 74.360,316.620 74.000,316.400 74.000 C 316.180 74.000,316.000 73.640,316.000 73.200 C 316.000 72.760,315.820 72.400,315.600 72.400 C 315.380 72.400,315.200 72.162,315.200 71.871 C 315.200 71.580,314.300 70.378,313.200 69.200 C 312.100 68.022,311.196 66.865,311.191 66.629 C 311.187 66.393,310.528 65.660,309.729 65.000 C 308.929 64.340,307.538 63.154,306.637 62.365 C 305.737 61.576,304.190 60.496,303.200 59.965 C 302.210 59.434,301.340 58.865,301.267 58.700 C 301.193 58.535,300.788 58.400,300.367 58.400 C 299.945 58.400,299.600 58.220,299.600 58.000 C 299.600 57.780,299.240 57.600,298.800 57.600 C 298.360 57.600,298.000 57.420,298.000 57.200 C 298.000 56.980,297.640 56.800,297.200 56.800 C 296.760 56.800,296.400 56.620,296.400 56.400 C 296.400 56.180,295.860 56.000,295.200 56.000 C 294.540 56.000,294.000 55.820,294.000 55.600 C 294.000 55.380,293.460 55.200,292.800 55.200 C 292.140 55.200,291.600 55.020,291.600 54.800 C 291.600 54.580,290.801 54.400,289.824 54.400 C 288.847 54.400,287.936 54.220,287.800 54.000 C 287.664 53.780,286.279 53.600,284.723 53.600 C 281.958 53.600,280.003 52.555,280.000 51.076 C 280.000 50.598,270.488 41.200,270.005 41.200 C 269.778 41.200,269.028 40.660,268.337 40.000 C 267.646 39.340,266.878 38.800,266.629 38.800 C 266.380 38.800,265.917 38.440,265.600 38.000 C 265.283 37.560,264.703 37.200,264.312 37.200 C 263.920 37.200,263.600 37.020,263.600 36.800 C 263.600 36.580,263.364 36.400,263.075 36.400 C 262.787 36.400,262.164 36.040,261.692 35.600 C 261.220 35.160,260.571 34.800,260.250 34.800 C 259.929 34.800,259.607 34.665,259.533 34.500 C 259.341 34.068,256.028 32.400,255.362 32.400 C 255.053 32.400,254.800 32.220,254.800 32.000 C 254.800 31.780,254.350 31.600,253.800 31.600 C 253.250 31.600,252.800 31.420,252.800 31.200 C 252.800 30.980,252.528 30.800,252.195 30.800 C 251.862 30.800,251.277 30.638,250.895 30.439 C 250.513 30.240,249.390 29.860,248.400 29.593 C 247.410 29.327,246.240 28.963,245.800 28.785 C 243.646 27.912,238.927 27.274,234.324 27.234 C 232.192 27.215,230.336 27.020,230.200 26.800 C 230.064 26.580,229.689 26.400,229.366 26.400 C 228.646 26.400,225.605 23.385,224.845 21.918 C 224.539 21.329,223.310 19.981,222.112 18.923 C 220.915 17.865,219.145 16.235,218.178 15.300 C 217.212 14.365,216.270 13.600,216.086 13.600 C 215.902 13.600,215.402 13.276,214.975 12.880 C 213.710 11.705,211.054 10.000,210.490 10.000 C 210.202 10.000,209.580 9.640,209.108 9.200 C 208.636 8.760,208.013 8.400,207.725 8.400 C 207.436 8.400,207.200 8.220,207.200 8.000 C 207.200 7.780,206.930 7.600,206.600 7.600 C 206.270 7.600,206.000 7.420,206.000 7.200 C 206.000 6.980,205.640 6.800,205.200 6.800 C 204.760 6.800,204.400 6.620,204.400 6.400 C 204.400 6.180,204.051 6.000,203.624 6.000 C 203.197 6.000,202.736 5.820,202.600 5.600 C 202.464 5.380,201.913 5.200,201.376 5.200 C 200.839 5.200,200.400 5.020,200.400 4.800 C 200.400 4.580,200.040 4.400,199.600 4.400 C 199.160 4.400,198.800 4.220,198.800 4.000 C 198.800 3.780,198.260 3.600,197.600 3.600 C 196.940 3.600,196.400 3.420,196.400 3.200 C 196.400 2.980,195.860 2.800,195.200 2.800 C 194.540 2.800,194.000 2.620,194.000 2.400 C 194.000 2.180,193.471 2.000,192.824 2.000 C 192.177 2.000,191.536 1.820,191.400 1.600 C 191.264 1.380,190.278 1.200,189.210 1.200 C 188.131 1.200,187.200 1.001,187.117 0.752 C 186.963 0.288,170.024 -0.080,164.900 0.268 M181.400 28.400 C 181.536 28.620,182.436 28.800,183.400 28.800 C 184.364 28.800,185.264 28.980,185.400 29.200 C 185.536 29.420,186.087 29.600,186.624 29.600 C 187.161 29.600,187.600 29.780,187.600 30.000 C 187.600 30.220,188.039 30.400,188.576 30.400 C 189.113 30.400,189.664 30.580,189.800 30.800 C 189.936 31.020,190.397 31.200,190.824 31.200 C 191.251 31.200,191.600 31.336,191.600 31.502 C 191.600 31.669,192.185 32.057,192.900 32.365 C 196.323 33.842,205.600 41.677,205.600 43.091 C 205.600 43.371,205.750 43.600,205.932 43.600 C 206.115 43.600,206.520 44.095,206.832 44.700 C 207.145 45.305,207.715 46.149,208.100 46.575 C 208.485 47.002,208.800 47.507,208.800 47.697 C 208.800 47.888,209.339 48.619,209.998 49.322 C 210.657 50.025,211.197 50.717,211.198 50.861 C 211.199 51.005,212.172 51.767,213.360 52.556 C 216.689 54.765,219.141 55.239,225.776 54.955 C 231.649 54.703,238.032 55.573,240.961 57.025 C 241.600 57.341,242.347 57.600,242.621 57.600 C 244.011 57.600,251.338 62.205,253.375 64.358 C 254.021 65.041,254.709 65.600,254.903 65.600 C 255.347 65.600,256.399 66.631,256.404 67.071 C 256.406 67.252,257.261 68.303,258.304 69.406 C 259.347 70.509,260.470 71.949,260.800 72.606 C 262.361 75.714,265.603 79.600,266.634 79.600 C 266.945 79.600,267.200 79.747,267.200 79.926 C 267.200 80.487,270.421 82.000,271.614 82.000 C 272.240 82.000,272.864 82.180,273.000 82.400 C 273.321 82.920,275.879 82.920,276.200 82.400 C 276.730 81.542,284.578 81.924,286.462 82.900 C 288.439 83.924,291.600 86.694,291.600 87.403 C 291.600 87.663,291.960 88.202,292.400 88.600 C 292.840 88.998,293.200 89.770,293.200 90.316 C 293.200 90.861,293.413 92.018,293.673 92.887 C 294.905 96.998,290.116 106.400,286.790 106.400 C 286.570 106.400,285.987 106.608,285.495 106.862 C 285.003 107.117,284.287 107.477,283.905 107.662 C 282.939 108.132,279.300 108.086,279.000 107.600 C 278.864 107.379,277.070 107.200,275.000 107.200 C 272.930 107.200,271.136 107.379,271.000 107.600 C 270.864 107.820,270.358 108.006,269.876 108.014 C 268.117 108.041,264.342 111.247,262.115 114.605 C 260.949 116.362,259.727 118.117,259.398 118.505 C 259.069 118.892,258.800 119.355,258.800 119.532 C 258.800 119.944,252.177 126.519,251.485 126.794 C 251.201 126.907,250.345 127.470,249.584 128.044 C 247.625 129.522,242.866 132.000,241.987 132.000 C 241.580 132.000,241.149 132.159,241.030 132.352 C 240.805 132.715,240.051 132.940,236.600 133.676 C 233.806 134.271,222.509 134.539,220.800 134.051 C 220.030 133.831,218.500 133.439,217.400 133.181 C 216.300 132.923,214.680 132.401,213.800 132.020 C 209.352 130.094,206.060 130.004,199.800 131.638 C 191.976 133.679,187.351 134.145,175.000 134.137 C 161.780 134.129,158.346 133.779,150.188 131.609 C 144.565 130.113,140.504 130.116,137.000 131.617 C 129.377 134.883,118.440 135.343,110.000 132.752 C 106.966 131.821,101.085 129.026,100.386 128.183 C 100.120 127.862,99.689 127.600,99.428 127.600 C 98.660 127.600,90.070 118.744,89.148 117.000 C 87.433 113.760,83.965 109.600,82.979 109.600 C 82.729 109.600,82.198 109.240,81.800 108.800 C 81.402 108.360,80.665 108.000,80.162 108.000 C 79.659 108.000,79.136 107.820,79.000 107.600 C 78.864 107.379,77.070 107.200,75.000 107.200 C 72.930 107.200,71.136 107.379,71.000 107.600 C 70.703 108.081,66.719 108.138,66.180 107.670 C 65.971 107.488,65.035 107.099,64.100 106.806 C 63.165 106.512,62.400 106.121,62.400 105.936 C 62.400 105.751,62.168 105.600,61.885 105.600 C 61.602 105.600,60.566 104.745,59.584 103.700 C 53.419 97.143,55.347 87.058,63.558 82.900 C 65.484 81.925,73.271 81.545,73.800 82.400 C 73.936 82.620,74.566 82.800,75.200 82.800 C 75.834 82.800,76.464 82.620,76.600 82.400 C 76.736 82.180,77.366 82.000,78.000 82.000 C 78.634 82.000,79.264 81.820,79.400 81.600 C 79.536 81.380,80.053 81.200,80.548 81.200 C 81.044 81.200,81.836 80.840,82.308 80.400 C 82.780 79.960,83.334 79.600,83.538 79.600 C 83.991 79.600,86.800 76.754,86.800 76.295 C 86.800 76.114,86.979 75.749,87.197 75.483 C 87.416 75.217,88.480 73.650,89.561 72.000 C 96.949 60.731,108.172 55.089,123.400 54.987 C 131.410 54.934,134.216 54.508,135.437 53.159 C 135.815 52.741,136.313 52.400,136.543 52.400 C 137.114 52.400,139.600 49.953,139.600 49.391 C 139.600 49.143,140.062 48.506,140.626 47.976 C 141.190 47.446,141.937 46.379,142.286 45.606 C 142.966 44.099,151.482 35.200,152.244 35.200 C 152.496 35.200,152.923 34.934,153.192 34.609 C 153.462 34.284,154.699 33.526,155.941 32.924 C 157.184 32.322,158.260 31.688,158.333 31.515 C 158.407 31.342,158.801 31.200,159.210 31.200 C 159.618 31.200,160.064 31.020,160.200 30.800 C 160.336 30.580,160.887 30.400,161.424 30.400 C 161.961 30.400,162.400 30.240,162.400 30.045 C 162.400 29.683,163.758 29.324,166.600 28.936 C 167.480 28.816,168.371 28.556,168.580 28.359 C 169.110 27.859,181.089 27.897,181.400 28.400 M78.879 146.000 C 79.090 146.000,79.924 146.675,80.731 147.500 C 81.539 148.325,82.695 149.255,83.300 149.568 C 83.905 149.880,84.400 150.285,84.400 150.468 C 84.400 150.650,84.648 150.800,84.951 150.800 C 85.254 150.800,85.734 151.079,86.016 151.420 C 86.299 151.761,87.300 152.390,88.241 152.819 C 89.182 153.247,90.056 153.767,90.184 153.974 C 90.479 154.452,92.764 155.600,93.421 155.600 C 93.695 155.600,94.945 156.140,96.200 156.800 C 97.455 157.460,98.812 158.000,99.217 158.000 C 99.622 158.000,100.064 158.180,100.200 158.400 C 100.336 158.620,100.876 158.800,101.400 158.800 C 101.924 158.800,102.464 158.980,102.600 159.200 C 102.736 159.420,103.431 159.600,104.144 159.600 C 104.857 159.600,105.623 159.783,105.847 160.007 C 106.071 160.231,107.733 160.528,109.541 160.667 C 111.348 160.807,112.922 161.074,113.037 161.260 C 113.312 161.704,130.288 161.704,130.563 161.260 C 130.678 161.073,132.274 160.805,134.110 160.664 C 135.945 160.523,138.590 160.032,139.989 159.572 C 142.709 158.679,145.482 158.682,149.400 159.583 C 152.481 160.291,156.328 160.757,159.276 160.779 C 160.748 160.791,162.064 160.980,162.200 161.200 C 162.517 161.713,186.938 161.744,187.905 161.232 C 188.287 161.030,190.850 160.675,193.600 160.443 C 199.593 159.937,201.647 159.628,202.258 159.138 C 202.872 158.647,207.705 158.631,208.650 159.116 C 210.194 159.910,212.342 160.405,215.338 160.659 C 217.037 160.802,218.521 161.073,218.637 161.260 C 218.911 161.704,236.688 161.704,236.963 161.260 C 237.078 161.074,238.652 160.807,240.459 160.667 C 242.267 160.528,243.929 160.231,244.153 160.007 C 244.377 159.783,245.143 159.600,245.856 159.600 C 246.569 159.600,247.264 159.420,247.400 159.200 C 247.536 158.980,247.915 158.800,248.243 158.800 C 248.571 158.800,249.584 158.440,250.494 158.000 C 251.405 157.560,252.340 157.200,252.572 157.200 C 253.271 157.200,261.909 152.792,262.422 152.174 C 262.684 151.858,263.118 151.600,263.387 151.600 C 263.656 151.600,264.202 151.240,264.600 150.800 C 264.998 150.360,265.538 150.000,265.800 150.000 C 266.062 150.000,266.602 149.640,267.000 149.200 C 267.398 148.760,267.898 148.400,268.111 148.400 C 268.324 148.400,269.657 147.316,271.073 145.991 C 272.489 144.666,273.817 143.687,274.024 143.815 C 274.885 144.347,274.492 341.192,273.629 341.513 C 273.206 341.671,271.721 342.897,270.329 344.237 C 268.938 345.577,267.588 346.747,267.329 346.837 C 267.070 346.927,265.766 348.035,264.431 349.300 C 263.096 350.565,261.864 351.600,261.692 351.600 C 261.519 351.600,260.128 352.860,258.600 354.400 C 257.072 355.940,255.630 357.200,255.397 357.200 C 255.164 357.200,253.995 358.190,252.800 359.400 C 251.605 360.610,250.436 361.600,250.201 361.600 C 249.967 361.600,248.706 362.680,247.400 364.000 C 246.094 365.320,244.834 366.400,244.601 366.400 C 244.368 366.400,243.012 367.578,241.588 369.017 C 240.165 370.457,238.477 371.897,237.839 372.217 C 236.836 372.720,228.147 372.800,174.424 372.800 L 112.170 372.800 110.200 370.800 C 109.117 369.700,108.043 368.796,107.815 368.791 C 107.587 368.786,106.141 367.526,104.602 365.991 C 103.063 364.456,101.623 363.193,101.402 363.185 C 101.181 363.177,99.920 362.099,98.600 360.789 C 97.280 359.479,96.015 358.406,95.788 358.404 C 95.562 358.402,94.217 357.230,92.800 355.800 C 91.383 354.370,90.089 353.200,89.924 353.200 C 89.760 353.200,88.505 352.120,87.135 350.800 C 85.765 349.480,84.505 348.400,84.335 348.400 C 84.165 348.400,82.905 347.320,81.535 346.000 C 80.165 344.680,78.893 343.600,78.708 343.600 C 78.524 343.600,77.794 343.015,77.087 342.300 L 75.800 341.000 75.697 242.800 C 75.640 188.790,75.690 144.346,75.809 144.036 C 75.968 143.618,76.344 143.800,77.259 144.736 C 77.939 145.431,78.668 146.000,78.879 146.000 M343.600 239.200 L 343.600 303.600 324.000 303.600 L 304.400 303.600 304.400 239.200 L 304.400 174.800 324.000 174.800 L 343.600 174.800 343.600 239.200 " stroke="none" fill="#0e0c04" fill-rule="evenodd"></path></g></svg>